<svg width="214" height="56" fill="none" xmlns="http://www.w3.org/2000/svg"><path d="M19.52 17.123c0 1.27-.46 2.266-1.377 2.988-.918.723-2.185 1.084-3.8 1.084-1.614 0-2.935-.25-3.964-.752v-2.207c.65.306 1.341.547 2.07.723a8.86 8.86 0 002.051.264c.925 0 1.605-.176 2.041-.528.443-.351.664-.823.664-1.416 0-.534-.202-.986-.605-1.357-.404-.371-1.237-.81-2.5-1.319-1.303-.527-2.22-1.129-2.754-1.806-.534-.677-.801-1.491-.801-2.442 0-1.19.423-2.128 1.27-2.812.846-.684 1.982-1.025 3.408-1.025 1.367 0 2.728.3 4.082.898l-.742 1.904c-1.27-.534-2.403-.8-3.399-.8-.755 0-1.328.166-1.719.498-.39.325-.586.758-.586 1.298 0 .371.079.69.235.957.156.26.413.508.771.743.358.234 1.003.543 1.934.927 1.048.437 1.816.844 2.305 1.221.488.378.846.804 1.074 1.28.228.475.341 1.034.341 1.679zM32.36 21h-8.077V6.723h8.076v1.972h-5.742v3.887h5.381v1.953h-5.38v4.483h5.741V21zm7.43-7.637h1.62c1.087 0 1.875-.201 2.363-.605.489-.404.733-1.003.733-1.797 0-.807-.264-1.387-.791-1.738-.528-.352-1.322-.528-2.383-.528h-1.543v4.668zm0 1.934V21h-2.335V6.723h4.033c1.843 0 3.207.345 4.092 1.035.886.69 1.328 1.732 1.328 3.125 0 1.777-.924 3.043-2.773 3.799L48.168 21h-2.656l-3.418-5.703h-2.305zm18.298-2.041h5.254v7.168c-.86.28-1.686.478-2.48.596-.788.117-1.641.175-2.56.175-2.16 0-3.827-.638-5-1.914-1.171-1.282-1.757-3.089-1.757-5.42 0-2.298.66-4.095 1.982-5.39 1.322-1.302 3.142-1.953 5.46-1.953 1.49 0 2.903.286 4.238.859l-.82 1.943c-1.16-.534-2.318-.8-3.477-.8-1.524 0-2.728.478-3.613 1.435-.886.957-1.329 2.266-1.329 3.926 0 1.745.398 3.073 1.192 3.984.8.905 1.95 1.358 3.447 1.358.755 0 1.563-.095 2.422-.284v-3.681h-2.96v-2.002zM76.856 21h-8.077V6.723h8.077v1.972h-5.743v3.887h5.381v1.953h-5.38v4.483h5.742V21zm5.095 0V6.723h2.334V21h-2.334zm17.623 0H97.26V6.723h8.056v1.972h-5.742v4.463h5.381v1.983h-5.38V21zm18.406 0h-8.076V6.723h8.076v1.972h-5.742v3.887h5.381v1.953h-5.381v4.483h5.742V21zm16.708-7.275c0 2.356-.655 4.16-1.963 5.41-1.309 1.243-3.194 1.865-5.655 1.865h-3.994V6.723h4.414c2.272 0 4.04.612 5.303 1.836 1.263 1.224 1.895 2.946 1.895 5.166zm-2.461.078c0-3.418-1.599-5.127-4.795-5.127h-2.022v10.361h1.66c3.438 0 5.157-1.745 5.157-5.234zm20.212.039c0 2.324-.582 4.13-1.748 5.42-1.158 1.289-2.802 1.933-4.931 1.933-2.155 0-3.812-.638-4.971-1.914-1.152-1.282-1.728-3.102-1.728-5.459 0-2.356.579-4.166 1.738-5.43 1.165-1.262 2.825-1.894 4.98-1.894 2.123 0 3.763.641 4.922 1.924 1.159 1.282 1.738 3.09 1.738 5.42zm-10.898 0c0 1.758.355 3.092 1.064 4.004.71.905 1.762 1.357 3.155 1.357 1.386 0 2.431-.45 3.135-1.348.709-.898 1.064-2.236 1.064-4.013 0-1.752-.352-3.08-1.055-3.985-.696-.905-1.738-1.357-3.125-1.357-1.399 0-2.457.452-3.174 1.357-.709.905-1.064 2.234-1.064 3.985zm18.299-.479h1.621c1.087 0 1.875-.201 2.363-.605.488-.404.733-1.003.733-1.797 0-.807-.264-1.387-.791-1.738-.528-.352-1.322-.528-2.383-.528h-1.543v4.668zm0 1.934V21h-2.334V6.723h4.033c1.843 0 3.206.345 4.092 1.035.885.69 1.328 1.732 1.328 3.125 0 1.777-.924 3.043-2.773 3.799L168.219 21h-2.657l-3.417-5.703h-2.305zm25.135-1.455c0 2.324-.583 4.13-1.748 5.42-1.159 1.289-2.803 1.933-4.932 1.933-2.155 0-3.812-.638-4.971-1.914-1.152-1.282-1.728-3.102-1.728-5.459 0-2.356.579-4.166 1.738-5.43 1.165-1.262 2.826-1.894 4.98-1.894 2.123 0 3.763.641 4.922 1.924 1.159 1.282 1.739 3.09 1.739 5.42zm-10.899 0c0 1.758.355 3.092 1.065 4.004.709.905 1.761 1.357 3.154 1.357 1.387 0 2.432-.45 3.135-1.348.709-.898 1.064-2.236 1.064-4.013 0-1.752-.351-3.08-1.055-3.985-.696-.905-1.738-1.357-3.125-1.357-1.399 0-2.457.452-3.173 1.357-.71.905-1.065 2.234-1.065 3.985zm24.1-7.12h2.422l-5 14.278h-2.461l-4.981-14.277h2.403l2.978 8.877c.156.423.322.97.498 1.64.176.664.29 1.16.342 1.485.085-.495.215-1.068.391-1.72.175-.65.319-1.132.429-1.444l2.979-8.838zM21.64 48V36.578h.797V47.25h5.446V48H21.64zm9.82 0V36.578h.796V48h-.797zm11.935-2.945c0 .953-.351 1.708-1.054 2.265-.698.558-1.628.836-2.79.836-1.395 0-2.465-.153-3.21-.46v-.798c.823.35 1.872.524 3.148.524.938 0 1.68-.214 2.227-.64.552-.433.828-.998.828-1.696 0-.432-.091-.79-.274-1.07-.182-.287-.479-.547-.89-.782-.412-.234-1.016-.487-1.813-.757-1.166-.401-1.974-.834-2.422-1.297-.442-.47-.664-1.091-.664-1.867 0-.855.334-1.55 1-2.086.672-.542 1.534-.813 2.586-.813 1.073 0 2.081.203 3.024.61l-.29.687c-.947-.396-1.854-.594-2.718-.594-.844 0-1.516.196-2.016.586-.5.39-.75.922-.75 1.594 0 .422.076.768.227 1.039.156.27.409.516.758.734.349.214.947.472 1.797.774.89.307 1.56.606 2.007.898.448.287.774.615.977.985.208.364.312.807.312 1.328zm4.014-8.477h3.133c1.412 0 2.448.24 3.11.719.661.479.992 1.203.992 2.172 0 .661-.203 1.213-.61 1.656-.4.438-.99.719-1.765.844v.047c.911.135 1.58.424 2.008.867.432.437.648 1.05.648 1.836 0 1.052-.349 1.862-1.047 2.43-.698.567-1.687.851-2.969.851h-3.5V36.578zm.797 5.086h2.516c1.073 0 1.852-.177 2.336-.531.49-.36.734-.92.734-1.68 0-.76-.276-1.312-.828-1.656-.547-.344-1.364-.516-2.453-.516h-2.305v4.383zm0 .703v4.93h2.688c2.114 0 3.172-.86 3.172-2.578 0-1.568-1.115-2.352-3.344-2.352h-2.516zm20.436-.094c0 1.813-.453 3.248-1.36 4.305-.905 1.052-2.155 1.578-3.75 1.578-1.588 0-2.835-.526-3.741-1.578-.907-1.057-1.36-2.497-1.36-4.32 0-1.818.456-3.248 1.367-4.29.917-1.046 2.167-1.57 3.75-1.57 1.594 0 2.842.526 3.743 1.579.9 1.046 1.351 2.479 1.351 4.296zm-9.343 0c0 1.636.364 2.901 1.093 3.797.73.89 1.776 1.336 3.14 1.336 1.376 0 2.425-.442 3.15-1.328.728-.885 1.093-2.154 1.093-3.805 0-1.645-.365-2.906-1.094-3.78-.724-.881-1.768-1.321-3.133-1.321-1.359 0-2.408.443-3.148 1.328-.734.885-1.102 2.143-1.102 3.773zM81.178 48h-.804l-6.766-10.14h-.062c.062 1.208.094 2.12.094 2.734V48h-.766V36.578h.797l6.758 10.125h.047a53.58 53.58 0 01-.07-2.672v-7.453h.773V48zm10.787-5.844c0-.463.104-.812.312-1.047.214-.24.51-.359.89-.359.381 0 .675.122.884.367.213.245.32.591.32 1.04 0 .442-.107.788-.32 1.038-.214.25-.508.375-.883.375s-.67-.122-.883-.367c-.214-.245-.32-.594-.32-1.047zM110.173 48l-4.257-10.547h-.063c.042.646.063 1.307.063 1.984V48h-.766V36.578h1.234l4.047 10.047h.047l4.047-10.047h1.203V48h-.805v-8.656c0-.604.032-1.23.094-1.875h-.062L110.681 48h-.508zm19.991-5.727c0 1.813-.453 3.248-1.359 4.305-.907 1.052-2.157 1.578-3.75 1.578-1.589 0-2.836-.526-3.742-1.578-.907-1.057-1.36-2.497-1.36-4.32 0-1.818.456-3.248 1.367-4.29.917-1.046 2.167-1.57 3.75-1.57 1.594 0 2.841.526 3.743 1.579.901 1.046 1.351 2.479 1.351 4.296zm-9.344 0c0 1.636.365 2.901 1.094 3.797.729.89 1.776 1.336 3.141 1.336 1.375 0 2.424-.442 3.148-1.328.729-.885 1.094-2.154 1.094-3.805 0-1.645-.365-2.906-1.094-3.78-.724-.881-1.768-1.321-3.133-1.321-1.359 0-2.409.443-3.148 1.328-.734.885-1.102 2.143-1.102 3.773zm19.882 2.782c0 .953-.352 1.708-1.055 2.265-.698.558-1.628.836-2.789.836-1.396 0-2.466-.153-3.211-.46v-.798c.823.35 1.872.524 3.148.524.938 0 1.68-.214 2.227-.64.552-.433.828-.998.828-1.696 0-.432-.091-.79-.273-1.07-.183-.287-.48-.547-.891-.782-.411-.234-1.016-.487-1.813-.757-1.166-.401-1.973-.834-2.421-1.297-.443-.47-.664-1.091-.664-1.867 0-.855.333-1.55 1-2.086.671-.542 1.533-.813 2.585-.813 1.073 0 2.081.203 3.024.61l-.289.687c-.948-.396-1.854-.594-2.719-.594-.844 0-1.516.196-2.016.586-.5.39-.75.922-.75 1.594 0 .422.076.768.227 1.039.156.27.409.516.758.734.349.214.948.472 1.797.774.89.307 1.56.606 2.008.898.447.287.773.615.976.985.208.364.313.807.313 1.328zm8.889-7.922c-1.433 0-2.56.458-3.383 1.375-.823.916-1.235 2.172-1.235 3.765 0 1.63.389 2.896 1.165 3.797.776.901 1.885 1.352 3.328 1.352.958 0 1.838-.122 2.64-.367v.703c-.755.265-1.698.398-2.828.398-1.604 0-2.867-.518-3.789-1.554-.922-1.037-1.383-2.485-1.383-4.344 0-1.162.219-2.185.657-3.07a4.779 4.779 0 011.898-2.047c.828-.485 1.789-.727 2.883-.727 1.114 0 2.112.208 2.992.625l-.32.719a5.799 5.799 0 00-2.625-.625zm16.264 5.14c0 1.813-.453 3.248-1.36 4.305-.906 1.052-2.156 1.578-3.75 1.578-1.588 0-2.836-.526-3.742-1.578-.906-1.057-1.359-2.497-1.359-4.32 0-1.818.456-3.248 1.367-4.29.917-1.046 2.167-1.57 3.75-1.57 1.594 0 2.841.526 3.742 1.579.901 1.046 1.352 2.479 1.352 4.296zm-9.344 0c0 1.636.365 2.901 1.094 3.797.729.89 1.776 1.336 3.14 1.336 1.375 0 2.425-.442 3.149-1.328.729-.885 1.094-2.154 1.094-3.805 0-1.645-.365-2.906-1.094-3.78-.724-.881-1.768-1.321-3.133-1.321-1.359 0-2.409.443-3.148 1.328-.735.885-1.102 2.143-1.102 3.773zM179.189 48h-.656l-2.508-8.813a32.584 32.584 0 01-.469-1.78c-.083.452-.203.973-.359 1.562-.151.588-.99 3.599-2.516 9.031h-.672l-3.14-11.422h.836l2 7.36.218.828c.068.25.128.487.18.71.057.22.107.433.149.641.046.203.088.409.125.617.125-.708.39-1.784.796-3.226l1.954-6.93h.882l2.289 7.953c.266.917.456 1.657.571 2.219.067-.375.153-.773.258-1.195.109-.422.914-3.414 2.414-8.977h.804L179.189 48z" fill="#F6F6F6"/></svg>