<?xml version="1.0" encoding="utf-8"?><svg viewBox="0 0 37 25" xmlns="http://www.w3.org/2000/svg" xmlns:xlink="http://www.w3.org/1999/xlink"><style>:root>svg{display:none}:root>svg:target{display:block}</style><svg fill="none" viewBox="0 0 15 25" id="arrow" xmlns="http://www.w3.org/2000/svg"><path d="M13.9 12.002L2.105.208a.705.705 0 00-1 0 .705.705 0 000 1L12.395 12.5 1.106 23.79A.712.712 0 001.603 25a.69.69 0 00.497-.209l11.793-11.793a.704.704 0 00.005-.995z" fill="#F6F6F6"/></svg><svg fill="none" viewBox="0 0 37 25" id="close" xmlns="http://www.w3.org/2000/svg"><g clip-path="url(#bclip0)"><path d="M18.9 12.002L7.105.208a.705.705 0 00-1 0 .705.705 0 000 1L17.395 12.5 6.106 23.79A.712.712 0 006.603 25a.69.69 0 00.497-.209l11.793-11.793a.704.704 0 00.005-.995z" fill="#F6F6F6"/></g><g clip-path="url(#bclip1)"><path d="M18.1 12.998l11.794 11.794a.705.705 0 001 0 .705.705 0 000-1L19.605 12.5l11.29-11.29a.705.705 0 000-1.001.712.712 0 00-.497-.21.69.69 0 00-.498.21L18.106 12.003a.704.704 0 00-.005.995z" fill="#F6F6F6"/></g><defs><clipPath id="bclip0"><path fill="#fff" d="M0 0h25v25H0z"/></clipPath><clipPath id="bclip1"><path fill="#fff" transform="rotate(180 18.5 12.5)" d="M0 0h25v25H0z"/></clipPath></defs></svg><svg fill="none" viewBox="0 0 25 25" id="inst" xmlns="http://www.w3.org/2000/svg"><path d="M14.893 12.5a2.393 2.393 0 11-4.786 0 2.393 2.393 0 014.786 0z" fill="#B5B5B5"/><path d="M18.095 8.266a2.224 2.224 0 00-.537-.825 2.222 2.222 0 00-.825-.537c-.253-.098-.633-.215-1.333-.247-.757-.034-.984-.042-2.9-.042-1.917 0-2.144.007-2.9.042-.7.032-1.08.149-1.333.247a2.22 2.22 0 00-.825.537 2.225 2.225 0 00-.538.825c-.098.253-.215.633-.247 1.333-.034.757-.042.984-.042 2.9 0 1.917.008 2.144.042 2.901.032.7.15 1.08.247 1.333.116.312.299.594.537.825.232.239.514.422.826.537.253.099.633.216 1.333.247.756.035.983.042 2.9.042 1.917 0 2.144-.007 2.9-.042.7-.031 1.08-.148 1.333-.247a2.377 2.377 0 001.362-1.362c.099-.253.216-.633.248-1.333.034-.757.041-.984.041-2.9 0-1.917-.007-2.144-.041-2.9-.032-.7-.15-1.08-.248-1.334zm-5.595 7.92a3.686 3.686 0 110-7.372 3.686 3.686 0 010 7.371zm3.831-6.657a.861.861 0 110-1.722.861.861 0 010 1.722z" fill="#B5B5B5"/><path d="M12.5 0C5.598 0 0 5.598 0 12.5S5.598 25 12.5 25 25 19.402 25 12.5 19.402 0 12.5 0zm7.134 15.46c-.034.763-.156 1.285-.333 1.742a3.67 3.67 0 01-2.1 2.099c-.456.177-.978.299-1.742.333-.765.035-1.01.044-2.959.044-1.95 0-2.194-.009-2.96-.044-.763-.035-1.285-.156-1.741-.333a3.516 3.516 0 01-1.272-.828 3.518 3.518 0 01-.828-1.271c-.177-.457-.299-.979-.333-1.743-.036-.765-.044-1.01-.044-2.959 0-1.95.008-2.194.044-2.96.034-.763.156-1.285.333-1.742.18-.479.463-.912.828-1.27a3.516 3.516 0 011.271-.829c.457-.177.979-.299 1.743-.333.765-.035 1.01-.044 2.959-.044 1.95 0 2.194.009 2.96.044.763.034 1.285.156 1.742.333.478.18.912.463 1.271.828.365.359.648.792.828 1.271.177.457.299.979.334 1.743.034.765.043 1.01.043 2.959 0 1.95-.009 2.194-.044 2.96z" fill="#B5B5B5"/></svg></svg>